<svg width="61" height="48" viewBox="0 0 61 48" fill="none" xmlns="http://www.w3.org/2000/svg">
<path fill-rule="evenodd" clip-rule="evenodd" d="M12.6699 0.00561523C9.18932 0.00561523 6.61385 3.01413 6.72918 6.27679C6.83986 9.41132 6.69606 13.471 5.6612 16.7817C4.62266 20.1016 2.86748 22.2055 0 22.4755V25.5243C2.86748 25.7949 4.62266 27.8977 5.66109 31.2181C6.69606 34.5287 6.83974 38.5884 6.72906 41.723C6.61373 44.9851 9.1892 47.9941 12.6704 47.9941H48.3348C51.8153 47.9941 54.3903 44.9856 54.275 41.723C54.1643 38.5884 54.3081 34.5287 55.343 31.2181C56.3815 27.8977 58.1324 25.794 61 25.5243V22.4755C58.1325 22.2049 56.3816 20.1021 55.343 16.7817C54.308 13.4715 54.1643 9.41132 54.275 6.27679C54.3903 3.0146 51.8153 0.00561523 48.3348 0.00561523H12.6694H12.6699ZM41.356 29.5457C41.356 34.0382 37.9627 36.7628 32.3315 36.7628H22.7457C22.4715 36.7628 22.2085 36.6553 22.0147 36.4638C21.8208 36.2723 21.7118 36.0126 21.7118 35.7418V12.2581C21.7118 11.9873 21.8208 11.7276 22.0147 11.5361C22.2085 11.3446 22.4715 11.237 22.7457 11.237H32.277C36.9724 11.237 40.054 13.7488 40.054 17.6052C40.054 20.3119 37.981 22.735 35.34 23.1596V23.3008C38.9352 23.6902 41.356 26.1493 41.356 29.5457V29.5457ZM31.2863 14.4737H25.8206V22.0979H30.4241C33.9828 22.0979 35.9451 20.6827 35.9451 18.1532C35.9447 15.7826 34.2577 14.4737 31.2863 14.4737ZM25.8206 25.123V33.5251H31.4874C35.1927 33.5251 37.1553 32.0569 37.1553 29.2975C37.1553 26.5382 35.1377 25.1226 31.2492 25.1226H25.8206V25.123Z" fill="#7952B3"/>
</svg>
